<?xml version="1.0" encoding="utf-8"?>
<!-- Generator: Adobe Illustrator 16.0.0, SVG Export Plug-In . SVG Version: 6.00 Build 0)  -->
<!DOCTYPE svg PUBLIC "-//W3C//DTD SVG 1.1//EN" "http://www.w3.org/Graphics/SVG/1.1/DTD/svg11.dtd">
<svg version="1.1" id="图层_1" xmlns="http://www.w3.org/2000/svg" xmlns:xlink="http://www.w3.org/1999/xlink" x="0px" y="0px"
	 width="50px" height="50px" viewBox="0 0 50 50" enable-background="new 0 0 50 50" xml:space="preserve">
<linearGradient id="SVGID_1_" gradientUnits="userSpaceOnUse" x1="24.9995" y1="0.5" x2="24.9995" y2="49.5005">
	<stop  offset="0.1871" style="stop-color:#FF6764"/>
	<stop  offset="1" style="stop-color:#FE3131"/>
</linearGradient>
<path fill="url(#SVGID_1_)" d="M15.821,49.5c-3.225-6.794-1.507-10.689,0.971-14.356c2.713-4.018,3.414-7.994,3.414-7.994
	s2.133,2.808,1.28,7.201c3.769-4.25,4.479-11.019,3.911-13.612c8.518,6.031,12.159,19.085,7.253,28.761
	c26.095-14.954,6.491-37.331,3.077-39.853c1.139,2.52,1.353,6.788-0.944,8.858C30.893,3.562,21.272,0.5,21.272,0.5
	c1.139,7.707-4.124,16.133-9.197,22.429c-0.179-3.073-0.368-5.194-1.962-8.134c-0.358,5.583-4.569,10.132-5.71,15.726
	C2.858,38.095,5.56,43.64,15.824,49.499L15.821,49.5z M15.821,49.5"/>
</svg>
