<?xml version="1.0" encoding="utf-8"?>
<!-- Generator: Adobe Illustrator 16.0.0, SVG Export Plug-In . SVG Version: 6.00 Build 0)  -->
<!DOCTYPE svg PUBLIC "-//W3C//DTD SVG 1.1//EN" "http://www.w3.org/Graphics/SVG/1.1/DTD/svg11.dtd">
<svg version="1.1" id="图层_1" xmlns="http://www.w3.org/2000/svg" xmlns:xlink="http://www.w3.org/1999/xlink" x="0px" y="0px"
	 width="50px" height="50px" viewBox="0 0 50 50" enable-background="new 0 0 50 50" xml:space="preserve">
<linearGradient id="SVGID_1_" gradientUnits="userSpaceOnUse" x1="24.9741" y1="0.9653" x2="24.9741" y2="48.9653">
	<stop  offset="0.3107" style="stop-color:#FF6764"/>
	<stop  offset="1" style="stop-color:#FE3131"/>
</linearGradient>
<path fill="url(#SVGID_1_)" d="M23.258,26.681c0.233,0.234,0.365,0.552,0.366,0.883v10.077c0,3.089-1.241,5.891-3.248,7.933
	c-0.023,0.026-0.046,0.05-0.069,0.075c-2.05,2.05-4.88,3.316-8.008,3.316c-3.126,0-5.96-1.267-8.009-3.316
	c-2.048-2.048-3.316-4.883-3.316-8.008c0-3.128,1.268-5.959,3.316-8.008l0.004,0.004l0.003-0.004c2.05-2.05,4.876-3.316,8.002-3.316
	h10.077C22.707,26.316,23.023,26.447,23.258,26.681z M27.574,23.615c0.688,0,1.25-0.562,1.25-1.248V12.29
	c0-2.438,0.985-4.646,2.584-6.243V6.043c1.655-1.655,3.901-2.583,6.242-2.58c2.341-0.004,4.588,0.924,6.246,2.58
	c1.654,1.656,2.583,3.904,2.58,6.247c0,2.409-0.96,4.59-2.521,6.184l-0.062,0.06c-1.656,1.658-3.902,2.587-6.244,2.583h-3.435
	c-0.689,0-1.25,0.561-1.249,1.25c0,0.686,0.561,1.248,1.25,1.248h3.435c3.128,0,5.959-1.267,8.008-3.316
	c0.023-0.026,0.046-0.049,0.069-0.076c2.007-2.042,3.247-4.844,3.247-7.933c0-3.125-1.268-5.953-3.316-8.002l-0.007-0.006
	c-2.048-2.049-4.876-3.316-8.001-3.316s-5.952,1.267-8.002,3.316l-0.003,0.003l-0.003-0.003c-2.05,2.049-3.316,4.88-3.316,8.008
	v10.078C26.326,23.053,26.888,23.615,27.574,23.615z M20.301,4.281c-2.048-2.049-4.877-3.316-8.001-3.316
	c-3.089,0-5.891,1.24-7.934,3.247C4.34,4.235,4.317,4.258,4.291,4.281c-2.048,2.049-3.316,4.88-3.316,8.008
	c0,3.125,1.268,5.959,3.316,8.009c2.05,2.049,4.884,3.316,8.009,3.316h10.077c0.688,0,1.246-0.558,1.248-1.248V12.29
	c0-3.125-1.268-5.953-3.316-8.002L20.301,4.281z M45.651,29.633c-2.049-2.05-4.877-3.316-8.002-3.316H27.573
	c-0.687,0-1.248,0.557-1.248,1.248v10.076c0,3.125,1.267,5.96,3.316,8.008c2.05,2.05,4.883,3.316,8.008,3.316
	c3.129,0,5.959-1.267,8.008-3.316l-0.003-0.003l0.003-0.004c2.05-2.048,3.317-4.876,3.317-8.001s-1.268-5.952-3.317-8.001
	L45.651,29.633z"/>
</svg>
