<?xml version="1.0" encoding="utf-8"?>
<!-- Generator: Adobe Illustrator 16.0.0, SVG Export Plug-In . SVG Version: 6.00 Build 0)  -->
<!DOCTYPE svg PUBLIC "-//W3C//DTD SVG 1.1//EN" "http://www.w3.org/Graphics/SVG/1.1/DTD/svg11.dtd">
<svg version="1.1" id="图层_1" xmlns="http://www.w3.org/2000/svg" xmlns:xlink="http://www.w3.org/1999/xlink" x="0px" y="0px"
	 width="50px" height="50px" viewBox="0 0 50 50" enable-background="new 0 0 50 50" xml:space="preserve">
<g>
	<g>
		<linearGradient id="SVGID_1_" gradientUnits="userSpaceOnUse" x1="24.9995" y1="0.5571" x2="24.9995" y2="49.4429">
			<stop  offset="0.2416" style="stop-color:#FF6764"/>
			<stop  offset="1" style="stop-color:#FE3131"/>
		</linearGradient>
		<path fill="url(#SVGID_1_)" d="M26.926,22.38V11.03c-0.562-0.056-1.104-0.12-1.567-0.198v-0.021H25.26l0.002,0.001h0.096v0.021
			h-0.078v0c-0.002,0.002-0.02,0.019-0.037,0.019c-0.6,0.081-1.335,0.178-2.167,0.259v11.271H0.5v-9.047
			c0-1.423,1.1-2.563,2.477-2.563h10.288c-2.763-0.599-4.836-1.823-4.912-4.083c-0.078-2.663,2.824-6.967,7.06-5.985
			c4.374,1.018,7.429,4.523,9.77,7.526c2.36-3.062,5.706-7.006,10.271-7.628c3.813-0.5,6.966,3.444,6.56,6.047
			c-0.347,2.28-2.457,3.523-5.146,4.123h10.156c1.375,0,2.477,1.14,2.477,2.563v9.047H26.926z M23.229,49.442H4.832
			c-1.238,0-2.245-1.04-2.245-2.341V24.205h20.643V49.442z M47.411,47.101c0,1.304-1.006,2.342-2.245,2.342H26.771V24.205h20.641
			V47.101z M38.957,7.47c1.451-1.923-1.393-5.927-4.449-4.447c-2.922,1.423-5.029,3.743-6.848,6.026
			c1.564,0.142,3.152,0.179,4.72,0.1C34.296,9.069,37.836,8.93,38.957,7.47L38.957,7.47z M15.88,3.063
			c-2.111-0.861-3.347,0.062-4.237,1.584c-0.484,0.859-1.004,2.001-0.233,2.841c2.031,2.163,7.601,2.003,11.337,1.601
			C20.985,6.811,18.819,4.266,15.88,3.063L15.88,3.063z M15.88,3.063"/>
	</g>
</g>
</svg>
